<?xml version="1.0" standalone="no"?>
<!DOCTYPE svg PUBLIC "-//W3C//DTD SVG 20010904//EN"
 "http://www.w3.org/TR/2001/REC-SVG-20010904/DTD/svg10.dtd">
<svg version="1.0" xmlns="http://www.w3.org/2000/svg"
 width="2856.000000pt" height="2856.000000pt" viewBox="0 0 2856.000000 2856.000000"
 preserveAspectRatio="xMidYMid meet">
<metadata>
Created by potrace 1.11, written by Peter Selinger 2001-2013
</metadata>
<g transform="translate(0.000000,2856.000000) scale(0.100000,-0.100000)"
fill="#000000" stroke="none">
<path d="M9535 18799 c-7 -10 -27 -2742 -41 -5612 l-7 -1437 4719 2 4719 3 3
3519 c2 2809 0 3521 -10 3528 -21 12 -9376 10 -9383 -3z"/>
<path d="M7800 18410 c-855 -214 -2396 -599 -3425 -855 -2422 -604 -2416 -602
-2425 -612 -8 -9 -54 -7012 -47 -7020 3 -2 855 208 1893 467 1039 259 2704
674 3699 921 996 248 1817 454 1825 458 18 10 14 -350 40 3601 24 3717 23
3430 8 3429 -7 0 -713 -175 -1568 -389z"/>
<path d="M19097 16968 c-12 -3133 -10 -5222 5 -5230 13 -7 167 -49 798 -218
168 -45 420 -112 560 -150 140 -38 392 -105 560 -150 168 -45 420 -112 560
-150 140 -38 392 -105 560 -150 168 -45 420 -112 560 -150 140 -38 392 -105
560 -150 168 -45 420 -112 560 -150 140 -38 381 -102 535 -143 154 -42 406
-109 560 -151 154 -41 417 -111 585 -156 168 -45 427 -115 576 -155 267 -72
343 -91 345 -84 0 2 4 1583 9 3514 6 2627 5 3513 -4 3521 -6 6 -132 43 -281
83 -148 40 -385 103 -525 141 -140 38 -392 105 -560 150 -168 45 -420 112
-560 150 -140 38 -392 105 -560 150 -168 45 -420 112 -560 150 -238 64 -400
107 -1103 296 -152 40 -402 107 -555 148 -152 41 -414 111 -582 156 -168 45
-411 110 -540 145 -129 35 -381 102 -560 150 -179 48 -448 120 -597 160 -150
41 -288 77 -306 80 l-34 7 -6 -1814z"/>
</g>
</svg>
