<svg xmlns="http://www.w3.org/2000/svg" width="647.0096435546875" height="318.55419921875" viewBox="-347.2530517578125 -100.17872619628906 647.0096435546875 318.55419921875"><title>Neo4j Graph Visualization</title><desc>Created using Neo4j (http://www.neo4j.com/)</desc><g class="layer relationships"><g class="relationship" transform="translate(255.75661349681735 93.48570418929546) rotate(539.6175932217396)"><path class="outline" fill="#CCAC00" stroke="none" d="M 40 1.5 L 93.61020539923072 1.5 L 93.61020539923072 -1.5 L 40 -1.5 Z M 148.09458039923072 1.5 L 201.70478579846144 1.5 L 201.70478579846144 4.5 L 210.70478579846144 0 L 201.70478579846144 -4.5 L 201.70478579846144 -1.5 L 148.09458039923072 -1.5 Z"/><text text-anchor="middle" pointer-events="none" font-size="8px" fill="#000000" x="120.85239289923072" y="3" transform="rotate(180 120.85239289923072 0)" font-family="sans-serif">embedded_in</text></g><g class="relationship" transform="translate(5.057411589137786 95.15896002895363) rotate(539.3438565616577)"><path class="outline" fill="#B51031" stroke="none" d="M 40 1.5 L 91.35133173588535 1.5 L 91.35133173588535 -1.5 L 40 -1.5 Z M 140.04664423588537 1.5 L 191.3979759717707 1.5 L 191.3979759717707 4.5 L 200.3979759717707 0 L 191.3979759717707 -4.5 L 191.3979759717707 -1.5 L 140.04664423588537 -1.5 Z"/><text text-anchor="middle" pointer-events="none" font-size="8px" fill="#000000" x="115.69898798588535" y="3" transform="rotate(180 115.69898798588535 0)" font-family="sans-serif">recorded_at</text></g><g class="relationship" transform="translate(5.057411589137786 95.15896002895363) rotate(270.2264377643157)"><path class="outline" fill="#A5ABB6" stroke="none" d="M 40 0.5 L 49.59716733127502 0.5 L 49.59716733127502 -0.5 L 40 -0.5 Z M 94.74169858127502 0.5 L 104.33886591255003 0.5 L 104.33886591255003 3.5 L 111.33886591255003 0 L 104.33886591255003 -3.5 L 104.33886591255003 -0.5 L 94.74169858127502 -0.5 Z"/><text text-anchor="middle" pointer-events="none" font-size="8px" fill="#000000" x="72.16943295627502" y="3" font-family="sans-serif">belongs_to</text></g><g class="relationship" transform="translate(-235.3248010376517 97.91190462938036) rotate(327.4038327658929)"><path class="outline" fill="#A5ABB6" stroke="none" d="M 40 0.5 L 116.94472119881738 0.5 L 116.94472119881738 -0.5 L 40 -0.5 Z M 162.08925244881738 0.5 L 239.03397364763475 0.5 L 239.03397364763475 3.5 L 246.03397364763475 0 L 239.03397364763475 -3.5 L 239.03397364763475 -0.5 L 162.08925244881738 -0.5 Z"/><text text-anchor="middle" pointer-events="none" font-size="8px" fill="#000000" x="139.51698682381738" y="3" font-family="sans-serif">belongs_to</text></g><g class="relationship" transform="translate(255.75661349681735 93.48570418929546) rotate(210.89696512884973)"><path class="outline" fill="#A5ABB6" stroke="none" d="M 40 0.5 L 119.65865167170762 0.5 L 119.65865167170762 -0.5 L 40 -0.5 Z M 164.80318292170762 0.5 L 244.46183459341523 0.5 L 244.46183459341523 3.5 L 251.46183459341523 0 L 244.46183459341523 -3.5 L 244.46183459341523 -0.5 L 164.80318292170762 -0.5 Z"/><text text-anchor="middle" pointer-events="none" font-size="8px" fill="#000000" x="142.23091729670762" y="3" transform="rotate(180 142.23091729670762 0)" font-family="sans-serif">belongs_to</text></g><g class="relationship" transform="translate(-235.3248010376517 97.91190462938036) rotate(378.69718196306945)"><path class="outline" fill="#238F23" stroke="none" d="M 11.801650543534434 38.24880448390895 L 22.154412347635265 76.88583753547168 A 22.935935394489817 22.935935394489817 0 1 1 -22.154412347635265 76.88583753547168 L -14.13102194945712 46.94213692051056 L -8.33546699172271 48.49505119112569 L -10.352761804100831 38.63703305156273 L -17.028799428324326 46.165679785203004 L -11.233244470589915 47.71859405581813 L -19.25663486876806 77.66229467077923 A 19.935935394489817 19.935935394489817 0 1 0 19.25663486876806 77.66229467077923 L 8.903873064667229 39.02526161921651 Z"/><text text-anchor="middle" pointer-events="none" font-size="8px" fill="#000000" x="0" y="114.75802982729645" font-family="sans-serif">has_parent_lo…</text></g><g class="relationship" transform="translate(-235.3248010376517 97.91190462938036) rotate(488.0505073644812)"><path class="outline" fill="#0066CC" stroke="none" d="M 12.767576369823502 37.98998543880643 L 23.120338173924335 76.62701849036915 A 23.935935394489817 23.935935394489817 0 1 1 -23.120338173924335 76.62701849036915 L -15.614585865951227 48.61516952798618 L -7.887179255638683 50.68572188880635 L -10.352761804100831 38.63703305156273 L -18.512363344818432 47.83871239267862 L -10.784956734505888 49.90926475349878 L -18.29070904247899 77.92111371588176 A 18.935935394489817 18.935935394489817 0 1 0 18.29070904247899 77.92111371588176 L 7.93794723837816 39.28408066431903 Z"/><text text-anchor="middle" pointer-events="none" font-size="8px" fill="#000000" x="0" y="115.75802982729645" transform="rotate(180 0 112.75802982729645)" font-family="sans-serif">connected_to</text></g></g><g class="layer nodes"><g class="node" transform="translate(5.655514024173556,-56.17872400636523)"><circle class="outline" cx="0" cy="0" r="40" fill="#9932CC" stroke="#882DB5" stroke-width="2px"/><text text-anchor="middle" pointer-events="none" font-family="sans-serif" dy="2.5" font-size="40" fill="#FFFFFF"/><text class="caption" text-anchor="middle" pointer-events="none" y="5" font-size="10px" fill="#FFFFFF" font-family="sans-serif"> Scenarios</text></g><g class="node" transform="translate(-235.3248010376517,97.91190462938036)"><circle class="outline" cx="0" cy="0" r="40" fill="#007FFF" stroke="#0066CC" stroke-width="2px"/><text text-anchor="middle" pointer-events="none" font-family="sans-serif" dy="2.5" font-size="40" fill="#FFFFFF"/><text class="caption" text-anchor="middle" pointer-events="none" y="5" font-size="10px" fill="#FFFFFF" font-family="sans-serif"> Locations</text></g><g class="node" transform="translate(255.75661349681735,93.48570418929546)"><circle class="outline" cx="0" cy="0" r="40" fill="#FFD700" stroke="#E0BD00" stroke-width="2px"/><text text-anchor="middle" pointer-events="none" font-family="sans-serif" dy="2.5" font-size="40" fill="#333333"/><text class="caption" text-anchor="middle" pointer-events="none" y="5" font-size="10px" fill="#333333" font-family="sans-serif"> Overlays</text></g><g class="node" transform="translate(5.057411589137786,95.15896002895363)"><circle class="outline" cx="0" cy="0" r="40" fill="#DC143C" stroke="#C71236" stroke-width="2px"/><text text-anchor="middle" pointer-events="none" font-family="sans-serif" dy="2.5" font-size="40" fill="#FFFFFF"/><text class="caption" text-anchor="middle" pointer-events="none" y="5" font-size="10px" fill="#FFFFFF" font-family="sans-serif"> Videos</text></g></g></svg>